<?xml version="1.0" encoding="UTF-8"?>
<svg id="Ebene_1" data-name="Ebene 1" xmlns="http://www.w3.org/2000/svg" viewBox="0 0 32 32">
  <defs>
    <style>
      .cls-1 {
        opacity: .3;
      }

      .cls-2 {
        fill: #c1272d;
      }

      .cls-3 {
        fill: #fbb03b;
      }
    </style>
  </defs>
  <g>
    <g>
      <polygon class="cls-3" points="11.59 19.34 15.19 17.61 15.34 8.66 19.81 8.74 19.63 19.92 13.32 22.94 11.59 19.34"/>
      <circle class="cls-2" cx="12.45" cy="21.14" r="2"/>
      <polygon class="cls-2" points="13.32 22.94 16.92 21.21 13.39 18.47 11.59 19.34 13.32 22.94"/>
      <polygon class="cls-2" points="19.63 19.92 19.63 19.92 19.67 17.68 17.83 20.78 19.63 19.92"/>
    </g>
    <path class="cls-1" d="M19.81,8.74l-4.47-.07-.15,8.94-1.8.86h0l-1.8.86c-1,.48-1.42,1.67-.94,2.67.48,1,1.67,1.42,2.67.94l3.61-1.73h0l.9-.43h0l1.8-.86.04-2.24h0l.15-8.94Z"/>
  </g>
  <g>
    <polygon class="cls-3" points="9.57 17.38 13.46 16.45 15.5 7.74 19.85 8.76 17.31 19.65 10.5 21.27 9.57 17.38"/>
    <circle class="cls-2" cx="10.04" cy="19.33" r="2"/>
    <polygon class="cls-2" points="10.5 21.27 14.39 20.35 11.52 16.92 9.57 17.38 10.5 21.27"/>
    <polygon class="cls-2" points="17.31 19.65 17.31 19.65 17.82 17.47 15.37 20.11 17.31 19.65"/>
  </g>
</svg>